<svg xmlns="http://www.w3.org/2000/svg" xmlns:xlink="http://www.w3.org/1999/xlink" width="45px" height="45px" viewBox="0 0 45 45"><g id="surface1"><path style=" stroke:none;fill-rule:nonzero;fill:rgb(0%,49.019608%,72.156863%);fill-opacity:1;" d="M 22.5 2.566406 C 17 2.566406 12.015625 4.796875 8.40625 8.410156 C 4.796875 12.011719 2.566406 16.996094 2.566406 22.503906 C 2.566406 28.003906 4.796875 32.988281 8.40625 36.589844 C 12.015625 40.195312 17 42.433594 22.5 42.433594 C 28.003906 42.433594 32.992188 40.195312 36.59375 36.589844 C 40.203125 32.988281 42.429688 28.003906 42.429688 22.503906 C 42.429688 16.996094 40.203125 12.011719 36.59375 8.410156 C 32.992188 4.796875 28.003906 2.566406 22.5 2.566406 M 22.5 0.148438 C 34.84375 0.148438 44.851562 10.15625 44.851562 22.503906 C 44.851562 34.84375 34.84375 44.851562 22.5 44.851562 C 10.160156 44.851562 0.148438 34.84375 0.148438 22.503906 C 0.148438 10.15625 10.160156 0.148438 22.5 0.148438 "></path><path style=" stroke:none;fill-rule:nonzero;fill:rgb(0%,49.019608%,72.156863%);fill-opacity:1;" d="M 11.929688 22.320312 C 11.929688 21.019531 11.066406 20.277344 9.84375 20.277344 L 9.09375 20.277344 L 9.09375 24.363281 L 9.820312 24.363281 C 10.960938 24.363281 11.929688 23.746094 11.929688 22.320312 M 25.25 23.789062 L 19.734375 28.132812 L 14.691406 24.164062 C 13.964844 25.914062 12.207031 27.125 10.183594 27.125 L 5.867188 27.125 L 5.867188 17.515625 L 10.183594 17.515625 C 12.445312 17.515625 14.074219 18.953125 14.691406 20.484375 L 19.734375 16.519531 L 21.601562 17.992188 L 16.980469 21.625 L 17.867188 22.320312 L 22.488281 18.6875 L 24.359375 20.152344 L 19.738281 23.789062 L 20.625 24.488281 L 25.25 20.851562 L 25.25 17.515625 L 28.605469 17.515625 L 28.605469 24.320312 L 31.949219 24.320312 L 31.949219 27.136719 L 25.25 27.136719 Z M 36.195312 24.324219 L 39.539062 24.324219 L 39.539062 27.136719 L 32.839844 27.136719 L 32.839844 17.515625 L 36.195312 17.515625 Z M 36.195312 24.324219 "></path></g></svg>